<?xml version="1.0" encoding="UTF-8"?><svg id="Layer_2" xmlns="http://www.w3.org/2000/svg" viewBox="0 0 248.46 149.55"><defs><style>.cls-1{fill:#3f2f17;}</style></defs><g id="Layer_1-2"><rect class="cls-1" x="0" y="49.85" width="49.85" height="49.85"/><rect class="cls-1" x="0" y="0" width="49.85" height="49.85"/><path class="cls-1" d="M49.85,49.85h49.85c0,27.51-22.34,49.85-49.85,49.85h0V49.85h0Z"/><path class="cls-1" d="M0,99.7H49.85v49.85h0C22.34,149.55,0,127.21,0,99.7H0Z"/><path class="cls-1" d="M148.76,99.7h0c27.51,0,49.85,22.34,49.85,49.85h0c-27.51,0-49.85-22.34-49.85-49.85h0Z" transform="translate(49.06 298.31) rotate(-90)"/><path class="cls-1" d="M198.61,49.85h49.85v49.85h0c-27.51,0-49.85-22.34-49.85-49.85h0Z" transform="translate(148.76 298.31) rotate(-90)"/><path class="cls-1" d="M103.41,46.09V3.14h22.12c4.1,0,7.24,.35,9.4,1.05s3.92,2.01,5.24,3.91c1.33,1.9,1.99,4.22,1.99,6.96,0,2.38-.51,4.44-1.52,6.17s-2.41,3.13-4.19,4.2c-1.13,.68-2.69,1.25-4.66,1.7,1.58,.53,2.73,1.06,3.45,1.58,.49,.35,1.2,1.1,2.12,2.26s1.55,2.04,1.86,2.67l6.43,12.45h-15l-7.09-13.12c-.9-1.7-1.7-2.8-2.4-3.31-.96-.66-2.04-1-3.25-1h-1.17v17.43h-13.33Zm13.33-25.55h5.6c.6,0,1.78-.19,3.52-.59,.88-.18,1.6-.62,2.15-1.35,.56-.72,.83-1.55,.83-2.49,0-1.39-.44-2.45-1.32-3.19-.88-.74-2.53-1.11-4.95-1.11h-5.83v8.73Z"/><path class="cls-1" d="M131.86,88.85h-15.07l-2.09,7.09h-13.55l16.14-42.95h14.48l16.14,42.95h-13.9l-2.15-7.09Zm-2.75-9.29l-4.74-15.44-4.69,15.44h9.43Z"/><path class="cls-1" d="M153.24,53.64h12.39l16.17,23.76v-23.76h12.51v42.95h-12.51l-16.08-23.58v23.58h-12.48V53.64Z"/><path class="cls-1" d="M61.16,104.15h32.81v9.23h-19.48v7.5h16.64v8.67h-16.64v17.55h-13.33v-42.95Z"/><path class="cls-1" d="M106.41,102.84h35.57v9.17h-22.27v6.83h20.65v8.76h-20.65v8.47h22.91v9.73h-36.21v-42.95Z"/><path class="cls-1" d="M61.16,3.14h32.81V12.37h-19.48v7.5h16.64v8.67h-16.64v17.55h-13.33V3.14Z"/><path class="cls-1" d="M148.76,0h49.85V49.85h0C171.1,49.85,148.76,27.51,148.76,0h0Z"/><g><path class="cls-1" d="M228.64,32.76c-.76,.07-1.54-.11-2.35-.57-.7-.39-1.42-.92-2.13-1.57-.72-.66-1.67-1.58-2.85-2.78-.99-1.04-1.84-1.88-2.54-2.52-.7-.65-1.37-1.15-2-1.5-1.69-.94-3.35-1.33-4.99-1.17-1.64,.16-2.94,.66-3.91,1.49l.74,.78c.96-.4,1.82-.64,2.58-.72,.76-.08,1.54,.11,2.35,.57,.7,.39,1.41,.92,2.13,1.57,.72,.66,1.67,1.58,2.85,2.78,.99,1.04,1.84,1.88,2.54,2.52,.7,.65,1.37,1.15,2,1.5,1.69,.94,3.35,1.33,4.99,1.17,1.64-.16,2.94-.66,3.91-1.49l-.74-.78c-.96,.4-1.82,.64-2.58,.72Z"/><path class="cls-1" d="M198.61,0h0V49.85h49.85c0-27.53-22.32-49.85-49.85-49.85Zm33.84,41.02c-4.14,4.08-10.8,4.04-14.89-.1l-2.57-2.6-4.81-4.87-2.59-2.62c-4.07-4.13-4.03-10.77,.1-14.85l.04-.04c4.12-4.07,10.75-4.02,14.82,.1l2.6,2.64,4.81,4.87,2.59,2.62c4.07,4.13,4.03,10.78-.1,14.85Z"/></g></g></svg>